<svg width="750" height="647" viewBox="0 0 750 647" fill="none" xmlns="http://www.w3.org/2000/svg">
<rect width="750" height="647" fill="white"/>
<path d="M739.698 0H8.24176C3.68996 0 0 5.82255 0 13.005V633.995C0 641.177 3.68996 647 8.24176 647H739.698C744.25 647 747.94 641.177 747.94 633.995V13.005C747.94 5.82255 744.25 0 739.698 0Z" fill="#57084E"/>
<mask id="mask0_698_2" style="mask-type:alpha" maskUnits="userSpaceOnUse" x="0" y="0" width="748" height="647">
<path d="M735.577 0H12.3626C5.53494 0 0 8.73382 0 19.5075V627.492C0 638.266 5.53494 647 12.3626 647H735.577C742.405 647 747.94 638.266 747.94 627.492V19.5075C747.94 8.73382 742.405 0 735.577 0Z" fill="#6848E7"/>
</mask>
<g mask="url(#mask0_698_2)">
<path d="M67.3667 157.427L748 438.358V627.498H67.3667V157.427Z" fill="black" fill-opacity="0.1"/>
<path d="M748 61.7246H474.247V624.683H748V61.7246Z" fill="black" fill-opacity="0.07"/>
<path d="M495.81 647C527.32 647 552.864 608.653 552.864 561.35C552.864 514.047 527.32 475.7 495.81 475.7C464.299 475.7 438.755 514.047 438.755 561.35C438.755 608.653 464.299 647 495.81 647Z" stroke="#C89797" stroke-opacity="0.17" stroke-width="8.14286"/>
<path d="M405.808 247.4C423.894 247.4 438.554 225.392 438.554 198.242C438.554 171.093 423.894 149.084 405.808 149.084C387.723 149.084 373.062 171.093 373.062 198.242C373.062 225.392 387.723 247.4 405.808 247.4Z" stroke="#C89797" stroke-opacity="0.07" stroke-width="4.07143"/>
<path d="M211.744 218.73C214.621 218.73 216.953 215.228 216.953 210.908C216.953 206.589 214.621 203.087 211.744 203.087C208.866 203.087 206.534 206.589 206.534 210.908C206.534 215.228 208.866 218.73 211.744 218.73Z" stroke="#C89797" stroke-opacity="0.14" stroke-width="2.44286"/>
<path d="M211.744 218.73C214.621 218.73 216.953 215.228 216.953 210.908C216.953 206.589 214.621 203.087 211.744 203.087C208.866 203.087 206.534 206.589 206.534 210.908C206.534 215.228 208.866 218.73 211.744 218.73Z" stroke="#C89797" stroke-opacity="0.14" stroke-width="2.44286"/>
<path d="M522.997 131.471C525.874 131.471 528.207 127.969 528.207 123.65C528.207 119.33 525.874 115.829 522.997 115.829C520.12 115.829 517.787 119.33 517.787 123.65C517.787 127.969 520.12 131.471 522.997 131.471Z" stroke="#C89797" stroke-opacity="0.14" stroke-width="2.44286"/>
<path d="M522.997 131.471C525.874 131.471 528.207 127.969 528.207 123.65C528.207 119.33 525.874 115.829 522.997 115.829C520.12 115.829 517.787 119.33 517.787 123.65C517.787 127.969 520.12 131.471 522.997 131.471Z" stroke="#C89797" stroke-opacity="0.14" stroke-width="2.44286"/>
<path d="M146.118 525.542C148.995 525.542 151.327 522.04 151.327 517.721C151.327 513.401 148.995 509.9 146.118 509.9C143.24 509.9 140.908 513.401 140.908 517.721C140.908 522.04 143.24 525.542 146.118 525.542Z" stroke="#C89797" stroke-opacity="0.14" stroke-width="2.44286"/>
<path d="M146.118 525.542C148.995 525.542 151.327 522.04 151.327 517.721C151.327 513.401 148.995 509.9 146.118 509.9C143.24 509.9 140.908 513.401 140.908 517.721C140.908 522.04 143.24 525.542 146.118 525.542Z" stroke="#C89797" stroke-opacity="0.14" stroke-width="2.44286"/>
<path d="M511.747 376.357C514.624 376.357 516.957 372.856 516.957 368.536C516.957 364.217 514.624 360.715 511.747 360.715C508.87 360.715 506.537 364.217 506.537 368.536C506.537 372.856 508.87 376.357 511.747 376.357Z" stroke="#C89797" stroke-opacity="0.14" stroke-width="2.44286"/>
<path d="M511.747 376.357C514.624 376.357 516.957 372.856 516.957 368.536C516.957 364.217 514.624 360.715 511.747 360.715C508.87 360.715 506.537 364.217 506.537 368.536C506.537 372.856 508.87 376.357 511.747 376.357Z" stroke="#C89797" stroke-opacity="0.14" stroke-width="2.44286"/>
<path d="M647.686 171.3C679.196 171.3 704.74 132.953 704.74 85.6502C704.74 38.3469 679.196 0 647.686 0C616.176 0 590.632 38.3469 590.632 85.6502C590.632 132.953 616.176 171.3 647.686 171.3Z" stroke="#C89797" stroke-opacity="0.17" stroke-width="8.14286"/>
<path d="M57.0543 402.113C88.5645 402.113 114.109 363.766 114.109 316.463C114.109 269.16 88.5645 230.813 57.0543 230.813C25.5441 230.813 0 269.16 0 316.463C0 363.766 25.5441 402.113 57.0543 402.113Z" stroke="#C89797" stroke-opacity="0.1" stroke-width="8.14286"/>
</g>
</svg>
