<svg width="47" height="50" viewBox="0 0 47 50" fill="none" xmlns="http://www.w3.org/2000/svg">
<path d="M5.13221 50H41.0576C43.8804 50 46.1899 48.5938 46.1899 46.875V3.125C46.19 1.40622 43.8804 0 41.0576 0H5.13221C2.30945 0 0 1.40622 0 3.125V46.875C0.000167582 48.5938 2.30962 50 5.13221 50ZM5.13221 46.875V42.1875H41.0576V46.875H5.13221ZM41.0576 5.25316V39.0625H5.13221V5.25316H41.0576Z" fill="#AB051D"/>
<path d="M23.0951 46.3516C24.749 46.3516 26.0898 45.5353 26.0898 44.5282C26.0898 43.5211 24.749 42.7047 23.0951 42.7047C21.4412 42.7047 20.1004 43.5211 20.1004 44.5282C20.1004 45.5353 21.4412 46.3516 23.0951 46.3516Z" fill="#AB051D"/>
<path d="M21.4553 22.4015V27.7937C20.6957 27.5702 20.0054 27.2093 19.3845 26.7125C18.7635 26.2156 18.3427 25.6234 18.1169 24.9359L12.5998 25.2968C13.0233 26.9859 13.9958 28.2953 15.5174 29.2218C17.0417 30.1484 19.0175 30.7015 21.4553 30.8812V33.2234H24.5192V30.8171C27.2676 30.5765 29.4128 29.925 30.9551 28.8609C32.4999 27.7968 33.2697 26.4875 33.2697 24.9344C33.2697 23.5453 32.6564 22.4062 31.4298 21.5173C30.2033 20.6282 27.9014 19.9079 24.5194 19.3485V14.3188C25.8871 14.6797 26.7313 15.3656 27.0548 16.3782L32.4025 15.9547C32.0355 14.6672 31.1914 13.6406 29.8671 12.8718C28.5431 12.1031 26.7597 11.6375 24.5194 11.475V10.2015H21.4555V11.475C19.0331 11.6203 17.0932 12.1718 15.633 13.1282C14.1729 14.0844 13.4441 15.2673 13.4441 16.6735C13.4441 18.0626 14.0883 19.2453 15.3763 20.2188C16.6697 21.1938 18.6943 21.9203 21.4553 22.4015ZM24.5219 22.9547C25.7895 23.1782 26.7032 23.4968 27.2574 23.9126C27.8168 24.3298 28.0939 24.8235 28.0939 25.3985C28.0939 26.0422 27.7603 26.6032 27.0983 27.0782C26.4362 27.5532 25.5767 27.8516 24.5194 27.9719V22.9547H24.5219ZM19.4692 15.1562C19.9619 14.7438 20.624 14.4531 21.4553 14.2812V18.7344C20.5419 18.4953 19.8566 18.1797 19.405 17.7891C18.9533 17.4 18.7274 16.9765 18.7274 16.5219C18.7301 16.0218 18.9791 15.5673 19.4692 15.1562Z" fill="#AB051D"/>
</svg>
