<svg width="63" height="50" viewBox="0 0 63 50" fill="none" xmlns="http://www.w3.org/2000/svg">
<path d="M40.7738 19.9931V22.8196C40.7738 23.4541 41.3306 23.9617 42.0266 23.9617C42.7226 23.9617 43.2794 23.4541 43.2794 22.8196V19.9931C43.2794 19.0471 42.8238 18.1587 42.0266 17.5704C39.6475 15.7937 37.1165 14.5016 35.927 13.9363V11.0637C36.5091 10.5099 36.8381 9.77158 36.8381 8.98708V4.85695C36.8381 2.18043 34.4463 0 31.5104 0H30.536C27.6001 0 25.2083 2.18043 25.2083 4.85695V8.98708C25.2083 9.77158 25.5374 10.5099 26.1195 11.0637V13.9248C24.9299 14.4901 22.399 15.7822 20.0199 17.5588C19.2226 18.1588 18.767 19.0355 18.767 19.9815V22.808C18.767 23.4426 19.3238 23.9502 20.0199 23.9502C20.7159 23.9502 21.2727 23.4426 21.2727 22.808V19.9815C21.2727 19.7277 21.3992 19.4855 21.6144 19.324C24.3225 17.2935 27.2458 15.9437 27.8152 15.7014C28.3088 15.4822 28.6251 15.0092 28.6251 14.5132V10.533C28.6251 10.1523 28.41 9.79465 28.0683 9.58699C27.8532 9.44855 27.714 9.22935 27.714 8.98708V4.85695C27.714 3.43793 28.9795 2.28426 30.536 2.28426H31.5104C33.067 2.28426 34.3325 3.43793 34.3325 4.85695V8.98708C34.3325 9.22935 34.2059 9.44855 33.9781 9.58699C33.6238 9.79465 33.4213 10.1523 33.4213 10.533V14.5132C33.4213 15.0208 33.7377 15.4822 34.2312 15.7014C34.788 15.9552 37.7239 17.2935 40.4321 19.324C40.6472 19.4855 40.7738 19.7277 40.7738 19.9931Z" fill="#AB051D"/>
<path d="M52.7325 35.6253C52.3782 35.833 52.1757 36.1906 52.1757 36.5713V40.5515C52.1757 41.0591 52.4921 41.5206 52.9856 41.7398C53.5424 41.9936 56.4783 43.3434 59.1865 45.3623C59.4016 45.5238 59.5282 45.7661 59.5282 46.0199V48.8464C59.5282 49.4809 60.085 49.9885 60.781 49.9885C61.477 49.9885 62.0338 49.4809 62.0338 48.8464V46.0199C62.0338 45.0739 61.5782 44.1855 60.781 43.5972C58.4019 41.8205 55.8709 40.5284 54.6814 39.9631V37.0905C55.2635 36.5367 55.5925 35.7984 55.5925 35.0139V30.8837C55.5925 28.2072 53.2007 26.0268 50.2648 26.0268H49.2904C46.3545 26.0268 43.9627 28.2072 43.9627 30.8837V35.0139C43.9627 35.7984 44.2918 36.5367 44.8739 37.0905V39.9631C43.6843 40.5284 41.1534 41.8205 38.7742 43.5972C37.977 44.1971 37.5214 45.0854 37.5214 46.0199V48.8464C37.5214 49.4809 38.0782 49.9885 38.7742 49.9885C39.4703 49.9885 40.0271 49.4809 40.0271 48.8464V46.0199C40.0271 45.7661 40.1536 45.5238 40.3688 45.3623C43.0769 43.3318 46.0002 41.982 46.5696 41.7398C47.0632 41.5206 47.3795 41.0476 47.3795 40.5515V36.5713C47.3795 36.1906 47.1644 35.833 46.8227 35.6253C46.6076 35.4869 46.4684 35.2677 46.4684 35.0254V30.8953C46.4684 29.4763 47.7339 28.3226 49.2904 28.3226H50.2648C51.8214 28.3226 53.0869 29.4763 53.0869 30.8953V35.0254C53.0869 35.2677 52.9603 35.4869 52.7325 35.6253Z" fill="#AB051D"/>
<path d="M22.0067 46.0313V48.8578C22.0067 49.4924 22.5635 50 23.2596 50C23.9556 50 24.5124 49.4924 24.5124 48.8578V46.0313C24.5124 45.0853 24.0568 44.197 23.2596 43.6086C20.8804 41.832 18.3495 40.5399 17.1599 39.9746V37.102C17.7421 36.5482 18.0711 35.8098 18.0711 35.0253V30.8952C18.0711 28.2187 15.6793 26.0383 12.7434 26.0383H11.769C8.83306 26.0383 6.4413 28.2187 6.4413 30.8952V35.0253C6.4413 35.8098 6.77033 36.5482 7.35245 37.102V39.9746C6.1629 40.5399 3.63193 41.832 1.25283 43.6086C0.455573 44.2085 0 45.0853 0 46.0313V48.8578C0 49.4924 0.556812 50 1.25283 50C1.94884 50 2.50565 49.4924 2.50565 48.8578V46.0313C2.50565 45.7775 2.6322 45.5353 2.84733 45.3738C5.55546 43.3433 8.47873 41.9935 9.04819 41.7512C9.55439 41.532 9.8581 41.0706 9.8581 40.563V36.5828C9.8581 36.2021 9.64297 35.8445 9.30129 35.6368C9.08616 35.4984 8.94696 35.2792 8.94696 35.0369V30.9067C8.94696 29.4877 10.2124 28.3341 11.769 28.3341H12.7434C14.2999 28.3341 15.5654 29.4877 15.5654 30.9067V35.0369C15.5654 35.2792 15.4389 35.4984 15.2111 35.6368C14.8568 35.8445 14.6543 36.2021 14.6543 36.5828V40.563C14.6543 41.0706 14.9706 41.532 15.4642 41.7512C16.021 42.005 18.9569 43.3433 21.665 45.3738C21.8802 45.5353 22.0067 45.766 22.0067 46.0313Z" fill="#AB051D"/>
<path d="M31.0171 40.4015C31.7131 40.4015 32.2699 39.8938 32.2699 39.2593V37.7249H32.4091C34.7755 37.7249 36.7117 35.9714 36.7117 33.8025C36.7117 31.6336 34.7882 29.88 32.4091 29.88H29.625C28.6379 29.88 27.828 29.1417 27.828 28.2418C27.828 27.3419 28.6379 26.6151 29.625 26.6151H34.5224C35.2185 26.6151 35.7753 26.1075 35.7753 25.473C35.7753 24.8385 35.2185 24.3309 34.5224 24.3309H32.2572V22.8196C32.2572 22.185 31.7004 21.6774 31.0044 21.6774C30.3084 21.6774 29.7516 22.185 29.7516 22.8196V24.3309H29.625C27.2586 24.3309 25.3224 26.0844 25.3224 28.2533C25.3224 30.4107 27.2459 32.1758 29.625 32.1758H32.4091C33.3962 32.1758 34.2061 32.9142 34.2061 33.814C34.2061 34.7139 33.3962 35.4522 32.4091 35.4522H27.4104C26.7144 35.4522 26.1576 35.9598 26.1576 36.5944C26.1576 37.2289 26.7144 37.7365 27.4104 37.7365H29.7642V39.2709C29.7642 39.8938 30.321 40.4015 31.0171 40.4015Z" fill="#3C92CA"/>
</svg>
