<svg width="57" height="50" viewBox="0 0 57 50" fill="none" xmlns="http://www.w3.org/2000/svg">
<path d="M28.4998 19.1424C31.7576 19.1424 34.408 16.8453 34.408 14.0219C34.408 11.1986 31.7575 8.90152 28.4998 8.90152C25.242 8.90152 22.5916 11.1986 22.5916 14.0219C22.5916 16.8453 25.2419 19.1424 28.4998 19.1424ZM28.4998 11.9798C29.7991 11.9798 30.856 12.8959 30.856 14.0218C30.856 15.1478 29.799 16.0639 28.4998 16.0639C27.2006 16.0639 26.1435 15.1478 26.1435 14.0218C26.1435 12.8959 27.2005 11.9798 28.4998 11.9798Z" fill="#AB051D"/>
<path d="M28.4999 22.0329C22.9636 22.0329 18.4594 25.9364 18.4594 30.7347V32.2738H38.5405V30.7347C38.5405 25.9365 34.0362 22.0329 28.4999 22.0329ZM22.2584 29.1955C23.0327 26.8407 25.5377 25.1112 28.4999 25.1112C31.4621 25.1112 33.9671 26.8407 34.7414 29.1955H22.2584Z" fill="#AB051D"/>
<path d="M54.85 8.70691C53.3926 8.91572 51.9089 9.02162 50.4399 9.02162C42.7596 9.02182 35.4221 6.22637 29.7788 1.15048L28.4999 0L27.2209 1.15038C21.5783 6.22596 14.2406 9.02131 6.55988 9.02152C5.0915 9.02152 3.60773 8.91572 2.14977 8.70681L0 8.39887L0.0856023 10.2859C0.421381 17.6963 2.07541 24.3818 5.00152 30.1564C7.36026 34.8115 10.5444 38.8857 14.4654 42.266C21.1852 48.0591 27.7168 49.7972 27.9916 49.8684L28.5 50L29.0084 49.8684C29.2832 49.7972 35.8147 48.0591 42.5346 42.266C46.4555 38.8857 49.6396 34.8115 51.9985 30.1564C54.9246 24.3818 56.5785 17.6963 56.9144 10.2859L57 8.39887L54.85 8.70691ZM40.1694 39.9623C35.0988 44.3787 30.0779 46.2506 28.4966 46.7648C26.9335 46.261 22.0234 44.4398 16.9702 40.0835C11.5045 35.3715 4.89082 26.7187 3.74661 11.9868C4.68409 12.062 5.62477 12.1 6.56 12.1C10.9006 12.0999 15.1552 11.3077 19.2053 9.74554C22.6112 8.43191 25.7308 6.63025 28.4999 4.37998C31.2692 6.63066 34.3886 8.43211 37.7943 9.74575C41.8445 11.308 46.099 12.1 50.4399 12.0999C51.3751 12.0999 52.3156 12.0619 53.2528 11.9867C52.3431 23.6364 47.8407 33.2808 40.1694 39.9623Z" fill="#AB051D"/>
</svg>
