<svg width="59" height="50" viewBox="0 0 59 50" fill="none" xmlns="http://www.w3.org/2000/svg">
<path d="M36.8496 11.4437C34.2931 11.0872 31.518 11.2126 28.8246 11.8065C28.1617 11.9528 27.7408 12.6183 27.8845 13.2931C28.0093 13.8786 28.518 14.2786 29.0837 14.2786C29.1698 14.2786 29.2573 14.2693 29.3451 14.25C31.7609 13.717 34.2404 13.6032 36.5162 13.9204C37.1887 14.0144 37.8077 13.5356 37.8998 12.8517C37.9918 12.1678 37.5217 11.5375 36.8496 11.4437Z" fill="#AB051D"/>
<path d="M45.8015 17.9186C45.2066 18.2505 44.989 19.0104 45.3152 19.6157C45.4122 19.7956 45.5044 19.978 45.5893 20.1582C45.8007 20.6061 46.2397 20.8673 46.6973 20.8673C46.8756 20.8673 47.0567 20.8277 47.2281 20.7439C47.8396 20.445 48.0973 19.6983 47.8035 19.0759C47.6996 18.8556 47.5868 18.6327 47.4687 18.4135C47.1426 17.8078 46.3956 17.5868 45.8015 17.9186Z" fill="#AB051D"/>
<path d="M47.6211 22.0623C46.949 22.1567 46.4796 22.7878 46.5724 23.4715C46.9805 26.4778 46.195 29.4605 44.3604 31.8706C43.945 32.4162 44.0429 33.2015 44.5791 33.6242C44.8029 33.8007 45.0677 33.8861 45.3305 33.8861C45.6972 33.8861 46.0602 33.7196 46.3022 33.4017C48.5449 30.4556 49.505 26.8075 49.0058 23.1294C48.9128 22.4455 48.2926 21.9689 47.6211 22.0623Z" fill="#AB051D"/>
<path d="M55.2884 21.2499C54.7593 21.2499 54.2568 21.366 53.802 21.5731C53.138 17.5897 51.2866 14.1735 48.3503 11.5666C45.462 9.00226 41.674 7.30721 37.3099 6.61121C37.4798 6.10518 37.5733 5.56376 37.5733 4.99995C37.5733 2.24292 35.3694 0 32.6605 0C29.9516 0 27.7477 2.24292 27.7477 4.99995C27.7477 5.57829 27.8458 6.13342 28.0241 6.65071C25.9626 6.98751 23.978 7.5355 22.0981 8.28915L15.8754 2.80497C15.5288 2.49957 15.0438 2.41624 14.6177 2.58828C14.1916 2.76079 13.8953 3.16041 13.8494 3.62483L13.0264 11.948C9.47131 13.9965 7.21492 16.9652 6.13866 21.0036C5.52412 23.3099 5.13343 23.4437 3.8734 23.552C1.93849 23.7177 1.00155 24.5633 0.556169 25.2435C-0.088991 26.229 -0.173277 27.4968 0.305498 29.012L1.7325 33.5271C2.40322 35.6484 3.64587 36.0936 4.57026 36.0936H5.93542C9.1101 40.3 12.056 41.3003 15.8914 42.2735C15.7679 43.8796 15.5526 45.7834 15.3434 47.4997H12.2065C11.5282 47.4997 10.9783 48.0594 10.9783 48.7497C10.9783 49.4399 11.5282 49.9996 12.2065 49.9996H16.4268H23.1823H25.2925C25.9709 49.9996 26.5208 49.4399 26.5208 48.7497C26.5208 48.0594 25.971 47.4997 25.2925 47.4997H24.8236L25.5839 44.8662C28.5305 45.3311 31.567 45.1161 35.3412 44.1769C35.3564 44.3114 35.372 44.4474 35.3878 44.5852C35.5347 45.864 35.7013 47.3133 35.6684 48.7202C35.6606 49.0566 35.7864 49.3823 36.0175 49.6231C36.2486 49.8639 36.5654 49.9999 36.8962 49.9999H44.054H48.2744C48.9526 49.9999 49.5027 49.4402 49.5027 48.7498C49.5027 48.0596 48.9528 47.4998 48.2744 47.4998H45.586C46.6881 42.9627 48.7508 38.3841 50.2225 36.4505C52.7452 33.1353 54.0785 29.1757 54.0785 24.9996C54.0785 24.3104 54.621 23.7498 55.2881 23.7498C55.9552 23.7498 56.498 24.3104 56.498 24.9996C56.498 25.3305 56.3677 25.6538 56.1406 25.8869C55.6628 26.3769 55.6657 27.1683 56.1473 27.6547C56.3868 27.8967 56.6996 28.0174 57.0124 28.0174C57.3281 28.0174 57.6441 27.8941 57.8841 27.6479C58.5744 26.9402 58.9545 25.9996 58.9545 24.9996C58.9546 22.9322 57.31 21.2499 55.2884 21.2499ZM32.6606 2.50015C34.015 2.50015 35.117 3.62167 35.117 5.00007C35.117 6.37859 34.015 7.5001 32.6606 7.5001C31.3061 7.5001 30.2042 6.37859 30.2042 5.00007C30.2042 3.62167 31.3061 2.50015 32.6606 2.50015ZM48.2808 34.9197C46.3203 37.4953 44.1151 42.8532 43.0616 47.5H38.1116C38.0662 46.3719 37.9414 45.2852 37.8275 44.2949C37.7539 43.6552 37.6845 43.0508 37.6449 42.5061C37.6176 42.1331 37.4277 41.7919 37.1271 41.5765C36.8265 41.361 36.4469 41.2946 36.0927 41.3938C31.5508 42.6723 28.2256 42.9164 24.9735 42.2108C24.3448 42.0745 23.7201 42.4538 23.539 43.0809L22.2632 47.4998H17.8188C18.0682 45.4326 18.3189 43.1345 18.4126 41.3778C18.4446 40.777 18.0516 40.2381 17.4772 40.0955C13.1934 39.0324 10.6078 38.3907 7.54378 34.108C7.31268 33.785 6.94352 33.5938 6.55088 33.5938H4.57049C4.39604 33.5938 4.19247 33.1454 4.0711 32.7614L2.6441 28.2467C2.41266 27.5145 2.39723 26.9404 2.60058 26.6299C2.80634 26.3156 3.33164 26.1072 4.07997 26.0432C6.88583 25.8023 7.80147 24.3162 8.50973 21.6581C9.76816 16.9362 12.6729 14.9358 14.7484 13.8418C15.1169 13.6475 15.3641 13.277 15.4058 12.8569L16.0568 6.27183L21.0616 10.6827C21.4167 10.9956 21.9161 11.0754 22.3482 10.8872C24.585 9.91424 27.0985 9.2466 29.6486 8.94589C30.4811 9.60568 31.5262 10.0003 32.6606 10.0003C33.8109 10.0003 34.8695 9.59466 35.7076 8.918C43.4987 9.78556 51.6224 14.4308 51.6224 24.9999C51.6225 28.6166 50.467 32.0468 48.2808 34.9197Z" fill="#AB051D"/>
<path d="M14.6761 19.9911C13.9994 19.9911 13.4479 20.553 13.4479 21.2415C13.4479 21.9298 13.9994 22.4913 14.6761 22.4913C15.3526 22.4913 15.9043 21.9298 15.9043 21.2415C15.9044 20.5528 15.3526 19.9911 14.6761 19.9911Z" fill="#AB051D"/>
<path d="M32.8577 47.5H31.7115C31.0333 47.5 30.4834 48.0597 30.4834 48.75C30.4834 49.4402 31.0333 50 31.7115 50H32.8577C33.5359 50 34.0858 49.4403 34.0858 48.75C34.086 48.0597 33.536 47.5 32.8577 47.5Z" fill="#AB051D"/>
</svg>
