<svg width="53" height="50" viewBox="0 0 53 50" fill="none" xmlns="http://www.w3.org/2000/svg">
<path d="M48.2447 0H4.55117C2.04158 0 0 2.95101 0 6.57834V43.4215C0 47.049 2.04158 50 4.55117 50H48.2447C50.7543 50 52.7958 47.049 52.7958 43.4215V6.57834C52.7958 2.95085 50.7543 0 48.2447 0ZM4.55117 1.94018H48.2447C50.0139 1.94018 51.4536 4.02086 51.4536 6.57834V10.739H1.34238V6.57834C1.34238 4.02086 2.78184 1.94018 4.55117 1.94018ZM48.2447 48.0597H4.55117C2.78184 48.0597 1.34226 45.979 1.34226 43.4215V15.4276H51.4535V43.4215C51.4536 45.979 50.0141 48.0597 48.2447 48.0597Z" fill="#AB051D"/>
<path d="M16.0366 26.2272H8.20392C6.76412 26.2272 5.59277 27.9203 5.59277 30.0015V34.4881C5.59277 36.5691 6.76412 38.2624 8.20392 38.2624H16.0366C17.4764 38.2624 18.6477 36.5691 18.6477 34.4881V30.0015C18.6477 27.9203 17.4764 26.2272 16.0366 26.2272ZM17.3055 34.4881C17.3055 35.4993 16.7363 36.3222 16.0366 36.3222H8.20392C7.50427 36.3222 6.93504 35.4993 6.93504 34.4881V30.0015C6.93504 28.9903 7.50427 28.1674 8.20392 28.1674H16.0366C16.7363 28.1674 17.3055 28.9903 17.3055 30.0015V34.4881Z" fill="#AB051D"/>
<path d="M46.6946 26.2272H24.8536C24.483 26.2272 24.1824 26.6618 24.1824 27.1973C24.1824 27.7327 24.483 28.1673 24.8536 28.1673H46.6946C47.065 28.1673 47.3657 27.7327 47.3657 27.1973C47.3657 26.6618 47.0654 26.2272 46.6946 26.2272Z" fill="#AB051D"/>
<path d="M35.3456 33.7982H24.8536C24.483 33.7982 24.1824 34.2327 24.1824 34.7683C24.1824 35.304 24.483 35.7384 24.8536 35.7384H35.3456C35.7161 35.7384 36.0167 35.304 36.0167 34.7683C36.0167 34.2327 35.7163 33.7982 35.3456 33.7982Z" fill="#AB051D"/>
</svg>
