<svg width="63" height="50" viewBox="0 0 63 50" fill="none" xmlns="http://www.w3.org/2000/svg">
<path d="M43.5537 50C43.0976 50 42.6381 49.9653 42.1804 49.8944C42.1679 49.8929 42.1554 49.8914 42.1429 49.8897C41.4805 49.7994 25.7824 47.5733 13.9794 38.2229C4.46452 30.6856 1.25504 21.0104 0.308439 17.1411C0.131891 16.6809 0.0304697 16.201 0.00730554 15.7135C0.000105879 15.6592 -0.0017723 15.6049 0.00167102 15.5508C-0.0152325 14.031 0.717881 12.6073 2.07236 11.5343L6.08476 8.35569C6.31953 8.16971 6.6382 8.06506 6.97001 8.06506C7.30182 8.06506 7.62048 8.16971 7.85525 8.35569L20.8394 18.6419C21.3286 19.0293 21.3286 19.6574 20.8394 20.0445L16.8276 23.2231C16.7252 23.3042 16.6223 23.3811 16.5171 23.455C14.643 24.7732 14.2795 27.0819 15.6738 28.8237C17.0132 30.4969 18.5286 32.0073 20.1773 33.3134C22.1303 34.8603 24.4477 36.2619 27.0643 37.4782C29.2045 38.4731 31.956 38.1542 33.7565 36.7028L33.8 36.6681L37.8124 33.4897C38.3017 33.1021 39.094 33.1021 39.5829 33.4897L52.5671 43.7757C53.0563 44.163 53.0563 44.7912 52.5671 45.1783L48.555 48.3569C47.2114 49.4215 45.4134 50 43.5537 50ZM42.5066 47.9259C42.5411 47.9294 42.5755 47.9336 42.6096 47.9393C44.13 48.1893 45.6908 47.8208 46.7845 46.9546L49.911 44.4775L38.6977 35.5943L35.5348 38.0999C32.9361 40.1949 28.9284 40.6454 25.7971 39.19C22.9968 37.8882 20.5104 36.3832 18.4071 34.7167C16.6285 33.3077 14.9973 31.6829 13.5596 29.8866C11.5152 27.3321 12.0727 23.9291 14.8571 21.9703C14.9278 21.9212 14.9942 21.8711 15.0593 21.8195L18.1846 19.3437L6.97032 10.4598L3.84316 12.9369C2.95666 13.6394 2.48211 14.5758 2.50653 15.5746C2.50747 15.5856 2.50809 15.5962 2.50841 15.6071C2.52093 15.9484 2.59167 16.2829 2.71876 16.601C2.73316 16.6375 2.74506 16.6749 2.75413 16.7126C3.64032 20.3651 6.68077 29.6356 15.7502 36.8206C26.6379 45.4458 41.4348 47.7674 42.5066 47.9259ZM61.7479 27.5119C61.0564 27.5119 60.4958 27.0678 60.4958 26.52C60.4958 12.9909 46.6017 1.98384 29.5234 1.98384C28.832 1.98384 28.2713 1.53971 28.2713 0.991921C28.2713 0.444133 28.832 0 29.5234 0C47.9827 0 63 11.8968 63 26.52C63 27.0678 62.4394 27.5119 61.7479 27.5119ZM53.9785 27.5119C53.287 27.5119 52.7264 27.0678 52.7264 26.52C52.7264 16.2968 42.2277 7.97976 29.3231 7.97976C28.6316 7.97976 28.071 7.53562 28.071 6.98783C28.071 6.44005 28.6316 5.99591 29.3231 5.99591C43.6085 5.99591 55.2306 15.2029 55.2306 26.52C55.2306 27.0678 54.67 27.5119 53.9785 27.5119ZM46.2285 27.5119C45.5371 27.5119 44.9764 27.0678 44.9764 26.52C44.9764 19.6824 37.9542 14.1195 29.3231 14.1195C28.6316 14.1195 28.071 13.6754 28.071 13.1276C28.071 12.5798 28.6316 12.1357 29.3231 12.1357C39.335 12.1357 47.4807 18.5883 47.4807 26.52C47.4807 27.0678 46.92 27.5119 46.2285 27.5119Z" fill="#AB051D"/>
</svg>
