<svg width="59" height="48" viewBox="0 0 59 48" fill="none" xmlns="http://www.w3.org/2000/svg">
<path d="M59 24C59 10.7663 45.7659 0 29.5 0C26.7623 0 24.1229 0.328149 21.6056 0.899056L21.5468 0.867314C21.533 0.883408 21.5231 0.900844 21.5094 0.918727C9.11932 3.76298 0 13.0209 0 24C0 37.2337 13.2336 48 29.5 48C32.2394 48 34.8771 47.6719 37.3944 47.1009L37.4532 47.1345C37.467 47.1184 37.4791 47.1009 37.4906 47.0831C49.8801 44.2366 59 34.9773 59 24ZM2.9361 25.1664H13.5677C13.6738 27.7442 14.0277 30.28 14.6689 32.7406H5.14683C3.87248 30.4016 3.11139 27.8479 2.9361 25.1664ZM56.0634 22.8349H45.4339C45.3257 20.2558 44.974 17.7196 44.3305 15.2589H53.8532C55.1275 17.5984 55.8886 20.1521 56.0634 22.8349ZM42.5704 22.8349H30.9315V15.2589H41.4059C42.0824 17.7151 42.4583 20.2513 42.5704 22.8349ZM30.9337 12.931V2.38869C32.324 2.44949 33.689 2.57422 35.0167 2.80133C37.4906 5.92456 39.3963 9.32631 40.6707 12.931H30.9337ZM28.0679 12.931H18.1106C19.2849 9.39024 21.0527 6.03007 23.3695 2.93098C24.8895 2.63815 26.4589 2.45888 28.0679 2.38869V12.931ZM28.0679 15.2594V22.8354H16.3977C16.4587 20.2576 16.789 17.72 17.4144 15.2594H28.0679ZM13.5364 22.8349H2.93445C3.10975 20.1516 3.87083 17.5966 5.14518 15.2589H14.5123C13.9221 17.7281 13.5957 20.2607 13.5364 22.8349ZM16.4296 25.1664H28.0685V32.7406H17.5919C16.917 30.2845 16.5417 27.7487 16.4296 25.1664ZM28.0679 35.0685V45.6109C26.6777 45.5501 25.3104 45.4253 23.985 45.1982C21.511 42.075 19.6053 38.6733 18.3288 35.0685C18.3293 35.0685 28.0679 35.0685 28.0679 35.0685ZM30.9337 35.0685H40.8888C39.7129 38.6093 37.9467 41.9677 35.6299 45.0686C34.1099 45.3632 32.5405 45.5407 30.9315 45.6109V35.0685H30.9337ZM30.9337 32.7406V25.1664H42.6039C42.5429 27.7424 42.2127 30.28 41.5851 32.7406H30.9337ZM45.4631 25.1664H56.0656C55.8903 27.8497 55.1292 30.4034 53.8548 32.7406H44.4877C45.0779 30.2719 45.4043 27.7393 45.4631 25.1664ZM52.3585 12.931H43.6282C42.5605 9.73582 41.0559 6.67519 39.1029 3.80947C44.6729 5.5678 49.3279 8.80458 52.3585 12.931ZM19.3536 3.97131C17.5347 6.79679 16.14 9.80154 15.1624 12.9297H6.64153C9.57543 8.93736 14.0205 5.76629 19.3536 3.97131ZM6.64153 35.0685H15.3734C16.4395 38.2637 17.9441 41.3244 19.8966 44.1901C14.3271 42.4318 9.67214 39.195 6.64153 35.0685ZM39.6458 44.0287C41.4648 41.2032 42.8594 38.1985 43.837 35.0703H52.3585C49.424 39.0622 44.9795 42.2333 39.6458 44.0287Z" fill="#AB051D"/>
</svg>
